<svg xmlns="http://www.w3.org/2000/svg" width="25" height="30" viewBox="0 0 34.899 30">
  <path id="video-camera" d="M33.21,5.48a1.654,1.654,0,0,0-1.141.458L25.1,12.369V7.027A3.03,3.03,0,0,0,22.075,4H3.027A3.03,3.03,0,0,0,0,7.027V21.271A2.936,2.936,0,0,0,2.933,24.2h9.046L7.839,33.13a.612.612,0,0,0,.3.813A.6.6,0,0,0,8.394,34a.614.614,0,0,0,.556-.354l3.988-8.6,3.988,8.6a.612.612,0,0,0,.555.354.6.6,0,0,0,.257-.057.612.612,0,0,0,.3-.813L13.9,24.2h8.038A3.171,3.171,0,0,0,25.1,21.036v-4.9l6.924,6.617a1.66,1.66,0,0,0,1.183.5A1.692,1.692,0,0,0,34.9,21.56V7.173A1.693,1.693,0,0,0,33.21,5.48ZM3.673,11.653A3.98,3.98,0,1,1,11.1,13.626L9,11.526a.612.612,0,1,0-.866.866l2.194,2.194a3.973,3.973,0,0,1-6.659-2.933Z" transform="translate(0 -4)" fill="#f5f5f5"/>
</svg>
